<?xml version="1.0" encoding="UTF-8"?>
<!DOCTYPE svg PUBLIC "-//W3C//DTD SVG 1.1//EN" "http://www.w3.org/Graphics/SVG/1.1/DTD/svg11.dtd">
<!-- Creator: CorelDRAW 2020 (64-Bit) -->
<svg xmlns="http://www.w3.org/2000/svg" xml:space="preserve" width="120px" height="120px" version="1.1" style="shape-rendering:geometricPrecision; text-rendering:geometricPrecision; image-rendering:optimizeQuality; fill-rule:evenodd; clip-rule:evenodd"
viewBox="0 0 120 120"
 xmlns:xlink="http://www.w3.org/1999/xlink"
 xmlns:xodm="http://www.corel.com/coreldraw/odm/2003">
 <defs>
  <style type="text/css">
   <![CDATA[
    .fil0 {fill:black}
    .fil1 {fill:white;fill-rule:nonzero}
   ]]>
  </style>
 </defs>
 <g id="Слой_x0020_1">
  <metadata id="CorelCorpID_0Corel-Layer"/>
  <rect class="fil0" width="120" height="120"/>
  <path class="fil1" d="M65.97 67.27l28.98 -32.94 0 68.54c0,3.2 2.55,4.8 7.05,4.8 4.7,0 7.05,-1.6 7.05,-4.8l0 -85.74c0,-2.66 -3.13,-4.8 -7.05,-4.8 -2.55,0 -4.7,0.8 -5.87,2.27l-36.03 40.93 -36.03 -40.93c-1.18,-1.47 -3.33,-2.27 -6.07,-2.27 -3.92,0 -7.05,2.14 -7.05,4.8l0 85.74c0,2.66 3.13,4.8 7.05,4.8 3.92,0 7.05,-2.14 7.05,-4.8l0 -68.54 28.98 32.94c1.17,1.46 3.33,2.26 6.07,2.26 2.54,0 4.7,-0.8 5.87,-2.26z"/>
 </g>
</svg>
